<svg width="60" height="30" viewBox="0 0 60 30" fill="none" xmlns="http://www.w3.org/2000/svg">
<path d="M0.837454 0.00463867H5.83533C6.25181 0.00463867 6.6683 0.421115 6.6683 0.83759V29.1982C6.6683 29.6416 6.31004 29.9998 5.86668 29.9998H0.832979C0.376184 29.9998 0 29.6237 0 29.1669V0.83759C0.00447838 0.421115 0.420965 0.00463867 0.837454 0.00463867Z" fill="#1C1C1C"/>
<path d="M58.3278 10.8328L48.3276 0.832952C47.4946 2.66923e-07 46.6617 0 44.9957 0H39.1649C38.7036 0 38.3319 0.371694 38.3319 0.832952V29.1622C38.3319 29.6235 38.7036 29.9952 39.1649 29.9952H44.1404C44.6151 29.9952 44.9957 29.6101 44.9957 29.1399V8.06082C44.9957 7.54582 45.6182 7.29056 45.981 7.6533L52.7836 14.4557C53.0837 14.7558 53.0837 15.2439 52.7836 15.5484L48.4888 19.843C48.3858 19.946 48.3321 20.0804 48.3321 20.2282V28.1457C48.3321 28.5219 48.7889 28.7144 49.0576 28.4457L58.3323 19.1713C59.5818 17.5054 59.9982 16.6725 59.9982 15.0066C59.9982 13.3407 59.5773 12.5032 58.3278 10.8328Z" fill="#1C1C1C"/>
<path d="M34.1655 0.00427246H28.3347C26.6687 0.00427246 25.8357 0.00427273 25.0028 0.837224L10.5018 15.3377C10.1838 15.6557 10.0047 16.0856 10.0047 16.5334V23.8912C10.0047 24.2987 10.4973 24.5047 10.7839 24.2136L27.3449 7.65309C27.7122 7.28588 28.3347 7.54562 28.3347 8.06509V21.7909C28.3347 22.3417 27.6629 22.6059 27.2867 22.2029L22.8979 17.5007C22.683 17.2679 22.3157 17.2634 22.0918 17.4873L18.3389 21.2401C18.1061 21.4729 18.1016 21.8536 18.3255 22.0954L24.9983 29.162C25.8313 29.995 26.6642 29.995 28.3302 29.995H34.161C34.6223 29.995 34.994 29.6233 34.994 29.162V0.832748C34.9985 0.375969 34.6223 0.00427246 34.1655 0.00427246Z" fill="#1C1C1C"/>
</svg>
