<svg
  width="24"
  height="24"
  viewBox="0 0 24 24"
  fill="none"
  xmlns="http://www.w3.org/2000/svg">
  <path
    fill-rule="evenodd"
    clip-rule="evenodd"
    d="M13.436 5.53611C15.617 7.71707 15.617 11.2531 13.436 13.4341C11.2551 15.615 7.71903 15.615 5.53806 13.4341C3.3571 11.2531 3.3571 7.71707 5.53806 5.53611C7.71903 3.35515 11.2551 3.35515 13.436 5.53611ZM15.6703 13.8797C17.7809 10.9177 17.5075 6.7792 14.8502 4.1219C11.8882 1.15989 7.08586 1.15989 4.12385 4.1219C1.16184 7.08391 1.16184 11.8863 4.12385 14.8483C6.78147 17.5059 10.9206 17.779 13.8827 15.6676L20.2144 21.9993L22.0021 20.2115L15.6703 13.8797Z"
    fill="#D9D9D9" />
</svg>
