<svg
  viewBox="0 0 24 24"
  fill="none"
  xmlns="http://www.w3.org/2000/svg">
  <path
    fill-rule="evenodd"
    clip-rule="evenodd"
    d="M16.3975 18.684C15.1357 19.5159 13.6244 20 12 20C10.3756 20 8.86432 19.5159 7.60251 18.684C7.85605 18.0324 8.18034 17.4458 8.55735 16.9432C9.50107 15.6849 10.7285 15 12 15C13.2715 15 14.4989 15.6849 15.4426 16.9432C15.8197 17.4458 16.1439 18.0325 16.3975 18.684ZM17.9829 17.311C17.7155 16.7457 17.4002 16.2199 17.0426 15.7432C16.4397 14.9393 15.7054 14.2634 14.8724 13.7837C15.5703 13.0637 16 12.082 16 11C16 8.79086 14.2091 7 12 7C9.79082 7 7.99996 8.79086 7.99996 11C7.99996 12.082 8.42958 13.0637 9.12755 13.7838C8.29452 14.2635 7.56027 14.9393 6.95736 15.7432C6.5998 16.2199 6.28449 16.7457 6.01713 17.311C4.76221 15.8983 4 14.0382 4 12C4 7.58172 7.58172 4 12 4C16.4183 4 20 7.58172 20 12C20 14.0382 19.2378 15.8984 17.9829 17.311ZM18.7091 19.4155C20.7303 17.5857 22 14.9411 22 12C22 6.47715 17.5228 2 12 2C6.47715 2 2 6.47715 2 12C2 14.9411 3.26972 17.5857 5.29091 19.4155C5.81974 19.8942 6.4 20.3172 7.02243 20.6751C7.04342 20.6872 7.06447 20.6992 7.08555 20.7111C8.53692 21.5317 10.2138 22 12 22C13.7862 22 15.4631 21.5317 16.9144 20.7111C17.4965 20.3821 18.0422 19.9963 18.5443 19.5615C18.5997 19.5134 18.6547 19.4648 18.7091 19.4155C18.7091 19.4155 18.7091 19.4155 18.7091 19.4155ZM12 13C13.1045 13 14 12.1046 14 11C14 9.89543 13.1045 9 12 9C10.8954 9 9.99996 9.89543 9.99996 11C9.99996 12.1046 10.8954 13 12 13Z"
    fill="currentColor" />
</svg>
