<svg
  aria-hidden="true"
  viewBox="0 0 24 24"
  fill="none"
  xmlns="http://www.w3.org/2000/svg">
  <g fill="currentColor">
    <path
      fill-rule="evenodd"
      clip-rule="evenodd"
      d="M18.3198 16.9057C19.3729 15.551 20 13.8487 20 12C20 10.1512 19.3729 8.44896 18.3198 7.09426L16.1715 9.24251C16.6951 10.033 17 10.9809 17 12C17 13.0191 16.6951 13.967 16.1716 14.7575L18.3198 16.9057ZM16.9056 18.3199L14.7573 16.1716C13.9669 16.6951 13.0191 17 12 17C10.9809 17 10.033 16.6951 9.24251 16.1715L7.09426 18.3198C8.44896 19.3729 10.1512 20 12 20C13.8487 20 15.5509 19.3729 16.9056 18.3199ZM5.68007 16.9055C4.62705 15.5509 4 13.8487 4 12C4 10.1513 4.62706 8.44909 5.6801 7.09441L7.82835 9.24267C7.30486 10.0331 7 10.9809 7 12C7 13.019 7.30485 13.9669 7.82833 14.7573L5.68007 16.9055ZM9.24255 7.82844C10.033 7.30489 10.9809 7 12 7C13.019 7 13.9669 7.30485 14.7573 7.82833L16.9055 5.68007C15.5509 4.62705 13.8487 4 12 4C10.1513 4 8.44899 4.6271 7.0943 5.68019L9.24255 7.82844ZM12 22C17.5228 22 22 17.5228 22 12C22 6.47715 17.5228 2 12 2C6.47715 2 2 6.47715 2 12C2 17.5228 6.47715 22 12 22ZM12 15C13.6569 15 15 13.6569 15 12C15 10.3431 13.6569 9 12 9C10.3431 9 9 10.3431 9 12C9 13.6569 10.3431 15 12 15Z" />
    <path
      fill-rule="evenodd"
      clip-rule="evenodd"
      d="M18.3198 16.9057C19.3729 15.551 20 13.8487 20 12C20 10.1512 19.3729 8.44896 18.3198 7.09426L16.1715 9.24251C16.6951 10.033 17 10.9809 17 12C17 13.0191 16.6951 13.967 16.1716 14.7575L18.3198 16.9057ZM16.9056 18.3199L14.7573 16.1716C13.9669 16.6951 13.0191 17 12 17C10.9809 17 10.033 16.6951 9.24251 16.1715L7.09426 18.3198C8.44896 19.3729 10.1512 20 12 20C13.8487 20 15.5509 19.3729 16.9056 18.3199ZM5.68007 16.9055C4.62705 15.5509 4 13.8487 4 12C4 10.1513 4.62706 8.44909 5.6801 7.09441L7.82835 9.24267C7.30486 10.0331 7 10.9809 7 12C7 13.019 7.30485 13.9669 7.82833 14.7573L5.68007 16.9055ZM9.24255 7.82844C10.033 7.30489 10.9809 7 12 7C13.019 7 13.9669 7.30485 14.7573 7.82833L16.9055 5.68007C15.5509 4.62705 13.8487 4 12 4C10.1513 4 8.44899 4.6271 7.0943 5.68019L9.24255 7.82844ZM12 22C17.5228 22 22 17.5228 22 12C22 6.47715 17.5228 2 12 2C6.47715 2 2 6.47715 2 12C2 17.5228 6.47715 22 12 22ZM12 15C13.6569 15 15 13.6569 15 12C15 10.3431 13.6569 9 12 9C10.3431 9 9 10.3431 9 12C9 13.6569 10.3431 15 12 15Z" />
  </g>
</svg>
