<svg
  aria-hidden="true"
  viewBox="0 0 24 24"
  fill="none"
  xmlns="http://www.w3.org/2000/svg">
  <path
    fill-rule="evenodd"
    clip-rule="evenodd"
    d="M9.68392 5.28428C9.11668 5.61172 8.43622 6.00459 7.98278 6.26662C7.85262 6.34183 7.44301 6.62027 7.45001 7.66665C7.4576 8.80138 7.96418 10.7848 9.86784 14.082C11.7715 17.3792 13.236 18.8098 14.215 19.3839C15.1179 19.9133 15.5634 19.6974 15.6929 19.6226C16.1468 19.3603 16.8277 18.9672 17.3949 18.6398L17.5498 18.5504L16.1303 16.0917L15.1813 16.6397C14.8207 16.8479 14.3597 16.9995 13.8381 16.8818C13.351 16.7719 12.9896 16.4643 12.7232 16.1708C12.2342 15.6318 11.7063 14.7172 11.0462 13.5734C11.0217 13.5309 10.9969 13.4881 10.972 13.445C10.9471 13.4018 10.9224 13.359 10.8979 13.3165C10.2374 12.1729 9.70919 11.2584 9.48691 10.5653C9.36585 10.1879 9.28023 9.72111 9.4285 9.24427C9.58727 8.7337 9.94909 8.41024 10.3098 8.202L11.2588 7.65407L9.83896 5.1948L9.68392 5.28428ZM9.70522 2.96277L10.5712 2.46303L13.9909 8.38612L13.1248 8.88612L11.3741 9.89694C11.3788 9.91406 11.3845 9.93322 11.3914 9.95455C11.5389 10.4145 11.9472 11.134 12.7041 12.445C13.461 13.7559 13.8799 14.4692 14.2044 14.8268C14.2194 14.8434 14.2331 14.8579 14.2455 14.8705L15.9957 13.8601L16.8624 13.3597L20.282 19.2827L18.3948 20.3719C17.8275 20.6993 17.1471 21.0922 16.6936 21.3542C15.9158 21.8037 14.7014 21.9876 13.2033 21.1091C11.7813 20.2753 10.1037 18.4906 8.13579 15.082C6.16785 11.6734 5.46108 9.32836 5.45005 7.68003C5.43843 5.94333 6.20493 4.98407 6.9821 4.53496C7.43599 4.27267 8.11683 3.87958 8.68406 3.55215L9.70522 2.96277Z"
    fill="currentColor" />
</svg>
